<svg width="32" height="32" viewBox="0 0 32 32" fill="none" xmlns="http://www.w3.org/2000/svg">
<rect width="32" height="32" rx="4" fill="#0B3D93"/>
<path d="M16.2324 22.6758C15.0094 22.6758 13.9355 22.4041 13.0107 21.8608C12.0859 21.3174 11.3648 20.5441 10.8473 19.5408C10.3298 18.5375 10.071 17.3474 10.071 15.9704C10.071 14.5533 10.3401 13.3423 10.8782 12.3374C11.4162 11.3325 12.1457 10.5631 13.0667 10.0293C13.9877 9.49544 15.0236 9.22852 16.1744 9.22852C16.9101 9.22852 17.5956 9.33501 18.231 9.548C18.8664 9.76099 19.4325 10.0642 19.9293 10.4578C20.426 10.8513 20.8311 11.3166 21.1446 11.8536C21.4581 12.3907 21.6608 12.982 21.7526 13.6274H19.0237C18.9333 13.3132 18.8044 13.0317 18.6371 12.7832C18.4698 12.5346 18.2672 12.3227 18.0292 12.1473C17.7912 11.972 17.5207 11.8387 17.2179 11.7475C16.915 11.6563 16.5812 11.6108 16.2164 11.6108C15.5437 11.6108 14.9493 11.7785 14.4331 12.1138C13.9169 12.4492 13.5146 12.9397 13.2261 13.5852C12.9377 14.2307 12.7935 15.0163 12.7935 15.942C12.7935 16.8685 12.936 17.6555 13.221 18.3028C13.5061 18.9502 13.907 19.4438 14.4239 19.7837C14.9407 20.1236 15.5499 20.2935 16.2514 20.2935C16.8821 20.2935 17.4241 20.1787 17.8774 19.9491C18.3307 19.7195 18.6778 19.3936 18.9184 18.9715C19.1591 18.5494 19.2795 18.0518 19.2795 17.4786L19.8422 17.5611H16.4375V15.523H21.8825V17.1598C21.8825 18.3039 21.64 19.2878 21.155 20.1116C20.6699 20.9353 20.0024 21.5687 19.1525 22.0115C18.3025 22.4544 17.3291 22.6758 16.2324 22.6758Z" fill="white"/>
</svg>
